<?xml version="1.0" standalone="no"?>
<!DOCTYPE svg PUBLIC "-//W3C//DTD SVG 20010904//EN"
 "http://www.w3.org/TR/2001/REC-SVG-20010904/DTD/svg10.dtd">
<svg version="1.0" xmlns="http://www.w3.org/2000/svg"
 width="192.000000pt" height="192.000000pt" viewBox="0 0 192.000000 192.000000"
 preserveAspectRatio="xMidYMid meet">

<g transform="translate(0.000000,192.000000) scale(0.100000,-0.100000)"
fill="#000000" stroke="none">
<path d="M804 1725 c-196 -42 -384 -177 -499 -355 -167 -258 -166 -594 1 -852
161 -250 461 -390 745 -348 349 51 618 320 670 670 26 184 -16 374 -121 535
-89 135 -194 226 -343 295 -145 67 -307 87 -453 55z m169 -15 c10 -14 33 -24
74 -30 76 -13 158 -41 233 -81 61 -32 190 -133 190 -148 0 -5 -22 -12 -49 -16
-47 -6 -69 -24 -56 -45 3 -5 -2 -25 -12 -44 -12 -26 -23 -36 -39 -36 -13 0
-26 -4 -29 -10 -4 -6 35 -10 110 -10 75 0 114 4 110 10 -3 6 -15 10 -25 10
-10 0 -22 9 -25 20 -3 11 -13 27 -21 35 -25 25 -8 55 31 55 28 0 39 -7 69 -49
67 -91 113 -212 131 -345 6 -46 5 -49 -10 -36 -9 8 -15 25 -13 41 2 19 -8 40
-30 68 -31 39 -36 41 -87 41 -50 0 -55 -2 -87 -41 l-34 -40 -86 17 -86 18 -27
-32 c-38 -46 -100 -75 -139 -68 -17 4 -43 9 -58 13 -20 4 -28 11 -28 27 0 40
22 99 45 122 18 18 20 24 9 24 -9 0 -14 6 -12 12 3 8 20 11 44 10 76 -6 133
72 134 181 0 31 -2 57 -5 57 -12 0 -120 -74 -132 -89 -16 -22 -7 -28 14 -9 10
9 34 23 53 32 l35 17 -34 -30 c-19 -17 -37 -28 -39 -26 -3 3 -11 0 -18 -5 -6
-6 -17 -9 -24 -8 -7 2 -15 -3 -18 -11 -2 -8 0 -11 6 -7 6 4 8 -2 5 -15 -4 -16
-8 -17 -14 -7 -6 9 -9 2 -9 -19 0 -17 -10 -49 -22 -70 l-23 -38 -3 64 -3 64
49 43 c97 85 89 182 -26 320 l-37 46 -43 -49 c-117 -132 -122 -256 -11 -331
31 -21 34 -22 40 -5 4 10 7 -27 7 -82 0 -79 -3 -96 -12 -81 -6 10 -21 33 -33
52 -12 19 -19 41 -16 53 9 37 -43 109 -110 151 -33 21 -64 37 -69 34 -4 -3 -8
-26 -8 -51 0 -110 54 -183 135 -183 34 0 47 -5 55 -19 14 -27 13 -30 -11 -24
-21 6 -21 5 4 -38 14 -24 28 -58 31 -75 7 -30 6 -31 -48 -44 -73 -17 -101 -8
-164 56 -34 35 -62 54 -77 54 -20 0 -23 5 -23 36 0 36 -7 52 -18 41 -3 -3 -6
-21 -6 -41 0 -40 -23 -56 -44 -29 -12 17 -13 16 -14 -4 0 -13 -6 -23 -14 -23
-17 0 -28 52 -18 81 8 20 9 20 25 4 15 -14 17 -15 17 -1 0 9 4 16 10 16 5 0 7
7 4 15 -4 9 0 15 9 15 8 0 18 7 21 16 3 8 2 12 -3 9 -16 -9 -24 15 -11 30 10
12 9 15 -5 15 -14 0 -15 3 -5 15 11 13 10 14 -4 9 -11 -4 -16 -1 -16 12 0 16
-2 17 -10 4 -8 -13 -11 -12 -24 5 -13 17 -15 18 -16 3 0 -25 -16 -30 -34 -12
-15 14 -16 14 -16 -1 0 -11 -5 -15 -15 -11 -8 3 -15 1 -15 -4 0 -5 8 -11 18
-13 12 -3 10 -5 -7 -6 -23 -1 -24 -2 -6 -21 18 -19 17 -20 -6 -20 l-24 0 25
-20 c21 -17 23 -21 10 -30 -13 -8 -12 -10 3 -10 9 0 17 -7 17 -16 0 -14 1 -14
16 0 8 9 17 16 19 16 2 0 2 -23 -1 -52 -5 -61 -33 -98 -75 -98 -15 0 -31 5
-34 10 -4 6 9 10 31 10 35 0 37 1 18 15 -14 11 -15 14 -4 15 10 0 7 7 -10 20
-14 11 -19 20 -11 20 11 0 11 3 1 15 -7 8 -9 15 -5 15 4 0 2 7 -5 15 -9 11 -9
15 -1 15 7 0 5 9 -6 24 -15 20 -20 22 -31 12 -7 -7 -14 -19 -15 -27 -2 -8 -6
-20 -10 -26 -5 -8 -3 -13 4 -13 7 0 4 -7 -7 -15 -18 -14 -18 -14 0 -15 16 0
16 -2 -5 -20 -17 -14 -20 -20 -9 -20 12 0 10 -4 -4 -15 -19 -14 -18 -15 12
-15 18 0 32 -5 32 -11 0 -6 -17 -9 -42 -7 -41 4 -43 5 -40 33 2 17 15 64 28
105 84 252 310 451 564 495 55 10 79 19 89 34 17 26 26 26 44 1z m-42 -113
c-6 -6 -11 -19 -11 -29 0 -12 -5 -15 -16 -11 -14 5 -14 2 1 -33 l16 -38 -27
24 -26 25 15 -37 16 -38 -25 16 c-29 20 -31 11 -3 -27 13 -19 16 -27 6 -23 -8
3 -20 15 -26 28 -10 18 -10 30 3 60 20 49 79 123 84 107 2 -7 -1 -18 -7 -24z
m67 2 c62 -73 79 -139 42 -159 -24 -13 -26 -5 -5 16 8 9 15 22 15 30 0 12 -5
11 -26 -3 -27 -17 -27 -17 -15 4 16 30 14 43 -5 36 -14 -5 -15 -3 -5 15 11 20
8 26 -11 23 -4 0 -5 8 -3 19 2 11 0 20 -5 20 -4 0 -10 7 -14 15 -9 24 3 18 32
-16z m412 -193 c0 -11 -19 -15 -25 -6 -3 5 1 10 9 10 9 0 16 -2 16 -4z m-580
-82 c0 -11 -4 -10 -19 4 -32 29 -75 57 -84 54 -5 -1 -6 2 -2 7 8 14 105 -47
105 -65z m-85 20 c9 -15 12 -23 6 -20 -6 4 -11 3 -11 -3 0 -5 5 -13 10 -16 6
-4 8 -10 5 -15 -3 -5 2 -16 11 -24 8 -9 11 -16 5 -16 -16 0 -41 44 -48 84 -7
43 -1 45 22 10z m679 4 c23 -33 20 -38 -24 -38 -22 0 -40 3 -40 8 0 12 30 52
40 52 5 0 16 -10 24 -22z m-914 -77 c7 -15 6 -24 -6 -36 -9 -9 -21 -14 -27
-12 -18 6 -31 33 -24 51 9 22 44 20 57 -3z m438 -383 c-2 -205 -3 -217 -8 -98
-5 138 -2 330 6 330 2 0 3 -105 2 -232z m566 188 c16 -22 26 -47 26 -69 0 -28
8 -41 50 -76 49 -42 50 -43 50 -100 l0 -58 -162 28 c-90 16 -173 31 -185 34
-17 4 -30 -7 -67 -55 -25 -32 -41 -62 -36 -65 6 -4 10 -16 9 -28 0 -21 -1 -21
-12 3 -6 14 -12 26 -13 28 -1 2 -12 -2 -24 -8 l-21 -11 25 -24 c14 -13 26 -31
26 -39 0 -8 5 -18 12 -22 7 -5 8 -2 3 7 -5 8 -4 11 0 6 5 -4 17 0 27 10 11 10
18 12 18 4 0 -11 -57 -51 -72 -51 -5 0 -8 11 -8 24 0 44 -104 106 -132 78 -6
-6 3 -12 25 -16 19 -4 47 -16 62 -27 39 -32 30 -59 -30 -89 -130 -64 -381 1
-309 81 9 10 35 24 56 31 24 7 35 15 29 21 -15 15 -78 -11 -105 -44 -14 -16
-27 -25 -30 -20 -4 5 6 23 20 40 14 17 21 31 14 31 -6 0 -37 25 -69 55 -32 30
-62 55 -67 55 -5 0 -18 8 -29 17 -20 16 -16 16 31 -3 10 -5 7 8 -13 39 -15 26
-37 48 -50 52 -13 3 -23 10 -23 16 0 6 -4 7 -10 4 -5 -3 -10 -1 -10 5 0 7 -7
10 -15 6 -8 -3 -15 -1 -15 5 0 6 -4 7 -10 4 -5 -3 -10 -2 -10 3 0 5 -18 15
-40 22 -22 7 -40 17 -40 22 0 15 21 9 107 -32 73 -34 85 -37 80 -21 -10 40 71
52 163 25 113 -34 164 -91 176 -201 l7 -58 -22 20 c-16 14 -20 26 -16 43 3 13
3 33 -1 45 -7 22 -7 22 -15 2 -7 -18 -8 -18 -9 5 0 14 -7 36 -15 50 l-14 25
-1 -30 c-1 -29 -1 -29 -15 10 -8 22 -15 41 -15 41 0 1 -9 4 -21 7 -19 5 -20 4
-5 -12 9 -10 16 -28 15 -42 l-1 -24 -7 25 c-11 35 -33 69 -49 75 -9 3 -10 0
-2 -15 18 -33 11 -35 -22 -3 -39 35 -63 46 -90 37 -28 -9 -18 -51 32 -136 50
-84 93 -118 146 -118 l39 0 -25 20 c-25 19 -25 19 23 2 40 -14 54 -26 75 -62
l26 -45 -26 23 -25 23 -49 -18 c-40 -15 -49 -23 -49 -43 0 -35 52 -62 135 -68
165 -11 270 68 145 110 -45 15 -52 15 -67 1 -28 -25 -23 4 7 42 14 19 36 35
52 37 15 3 37 8 48 12 11 4 8 0 -7 -9 -36 -21 -35 -25 7 -25 44 0 93 42 138
118 51 86 63 122 46 133 -26 16 -49 9 -89 -27 -41 -37 -48 -38 -30 -3 6 10 7
19 2 19 -14 0 -33 -26 -48 -67 l-14 -38 6 45 c7 49 -3 48 -30 -5 -13 -24 -16
-26 -16 -10 0 18 -2 18 -19 -5 -11 -13 -17 -29 -14 -34 3 -5 1 -6 -5 -2 -14 9
-26 -36 -18 -68 4 -16 0 -29 -14 -41 -20 -18 -20 -17 -20 21 0 103 52 175 153
212 65 25 144 29 171 9 17 -12 17 -15 -3 -67 -11 -30 -19 -55 -18 -56 1 -1 16
-4 32 -6 28 -3 30 -1 33 36 l3 38 77 -6 c42 -4 93 -10 112 -14 33 -7 35 -10
38 -55 4 -64 22 -60 22 5 0 45 -4 57 -32 85 -27 28 -39 33 -80 33 l-48 0 0 45
c0 42 22 95 40 95 4 0 19 -15 34 -34z m-876 -3 c-10 -2 -28 -2 -40 0 -13 2 -5
4 17 4 22 1 32 -1 23 -4z m20 -40 c72 -18 91 -33 32 -27 -22 3 -56 0 -76 -5
-41 -11 -104 -4 -82 10 7 5 29 9 48 9 34 1 34 2 10 11 -14 6 -43 11 -65 11
-29 0 -35 3 -20 8 24 9 70 4 153 -17z m694 7 c-34 -4 -65 -10 -68 -13 -3 -3
25 -9 63 -13 l68 -8 -45 -8 c-27 -5 -55 -4 -70 2 -14 5 -46 10 -73 12 -98 4 3
36 113 36 l75 -1 -63 -7z m235 -32 c-3 -8 -6 -5 -6 6 -1 11 2 17 5 13 3 -3 4
-12 1 -19z m20 0 c-3 -8 -6 -5 -6 6 -1 11 2 17 5 13 3 -3 4 -12 1 -19z m-1257
-32 c0 -4 7 -6 15 -2 8 3 15 1 15 -5 0 -6 7 -8 17 -5 9 4 -4 -15 -28 -41 -25
-26 -57 -65 -73 -86 -16 -21 -31 -35 -34 -33 -7 7 18 43 73 104 26 28 42 52
37 52 -6 0 -35 -28 -66 -62 -31 -34 -56 -57 -56 -51 0 6 23 37 51 67 61 67 52
75 -11 11 -24 -24 -46 -42 -49 -40 -3 3 15 26 39 50 51 52 48 60 -5 14 -36
-32 -48 -30 -18 3 16 18 16 18 -2 12 -13 -5 -16 -4 -11 5 4 6 16 9 26 6 10 -3
21 -2 24 4 7 11 56 9 56 -3z m554 -18 c25 -36 19 -40 -23 -16 -40 23 -45 38
-11 38 10 0 26 -10 34 -22z m146 15 c-1 -5 -16 -18 -35 -30 -32 -20 -35 -20
-35 -5 0 10 5 23 12 30 13 13 58 17 58 5z m-676 -92 c-32 -39 -62 -71 -67 -71
-11 0 18 41 73 103 64 73 59 48 -6 -32z m39 -1 c-25 -33 -50 -60 -55 -60 -12
0 -3 15 45 73 56 68 65 58 10 -13z m36 -5 c-23 -31 -44 -53 -47 -51 -10 11 62
106 80 106 5 0 -10 -25 -33 -55z m37 -6 c-15 -22 -30 -38 -33 -35 -3 3 6 24
21 47 15 22 30 38 33 35 3 -3 -6 -24 -21 -47z m54 26 c0 -3 -7 -17 -16 -30
-23 -36 -39 -31 -17 5 15 27 33 40 33 25z m24 -29 c-6 -16 -24 -23 -24 -8 0
10 22 33 27 28 2 -2 1 -11 -3 -20z m-107 -72 c-3 -3 -12 -4 -19 -1 -8 3 -5 6
6 6 11 1 17 -2 13 -5z m856 -28 l32 3 -30 -8 c-35 -9 -57 4 -47 27 6 15 7 14
10 -4 2 -16 9 -20 35 -18z m-906 18 c-3 -3 -12 -4 -19 -1 -8 3 -5 6 6 6 11 1
17 -2 13 -5z m-50 -10 c-3 -3 -12 -4 -19 -1 -8 3 -5 6 6 6 11 1 17 -2 13 -5z
m890 -26 c-3 -8 -6 -5 -6 6 -1 11 2 17 5 13 3 -3 4 -12 1 -19z m208 -11 c-19
-11 -19 -11 5 -18 25 -7 25 -7 2 -8 -13 -1 -31 -5 -41 -10 -14 -8 -17 -5 -16
14 0 31 15 45 15 15 0 -22 0 -22 21 4 12 15 24 24 28 21 3 -4 -3 -12 -14 -18z
m-205 -12 c7 8 27 14 44 14 26 -2 27 -2 6 -6 -48 -8 -57 -16 -25 -23 30 -8 30
-8 -7 -9 -45 -1 -59 -18 -21 -24 26 -4 26 -4 -4 -6 -35 -1 -41 7 -21 27 9 9 9
12 0 12 -7 0 -12 8 -12 18 1 16 1 16 14 -1 12 -15 15 -15 26 -2z m174 -37 c16
2 25 -1 22 -6 -8 -13 -76 -21 -82 -10 -3 5 -10 6 -15 3 -5 -3 -6 2 -2 11 6 16
7 15 20 -2 14 -19 16 -15 15 26 l-1 25 8 -25 c6 -20 13 -24 35 -22z m-949 22
c-11 -5 -27 -9 -35 -9 -9 0 -8 4 5 9 11 5 27 9 35 9 9 0 8 -4 -5 -9z m185 6
c0 -2 -9 -6 -20 -9 -11 -3 -18 -1 -14 4 5 9 34 13 34 5z m923 -13 c-21 -8 -14
-26 7 -20 12 3 18 1 14 -5 -3 -5 -15 -8 -25 -5 -11 3 -19 0 -20 -6 0 -8 -3 -7
-6 1 -6 15 27 56 36 46 3 -4 0 -9 -6 -11z m-988 -13 c3 -6 -1 -7 -9 -4 -18 7
-21 14 -7 14 6 0 13 -4 16 -10z m945 -22 c0 -5 -4 -8 -10 -8 -5 0 -10 10 -10
23 0 18 2 19 10 7 5 -8 10 -18 10 -22z m-1000 12 c-8 -5 -22 -9 -30 -9 -10 0
-8 3 5 9 27 12 43 12 25 0z m-80 -30 c0 -5 -4 -10 -10 -10 -5 0 -10 5 -10 10
0 6 5 10 10 10 6 0 10 -4 10 -10z m240 -29 c-12 -23 -30 -28 -30 -9 0 16 34
52 38 39 2 -5 -2 -19 -8 -30z m715 29 c-3 -5 -18 -10 -33 -9 -24 0 -25 1 -7 9
28 12 47 12 40 0z m92 -22 c-3 -7 -5 -2 -5 12 0 14 2 19 5 13 2 -7 2 -19 0
-25z m-560 0 c-3 -8 -6 -5 -6 6 -1 11 2 17 5 13 3 -3 4 -12 1 -19z m374 0 c11
-21 11 -22 -4 -9 -10 7 -17 17 -17 22 0 15 9 10 21 -13z m-908 5 c3 -5 -5 -8
-18 -8 -13 0 -21 3 -18 8 2 4 10 7 18 7 8 0 16 -3 18 -7z m471 -2 c5 -8 -74
-22 -83 -15 -6 5 41 23 61 23 9 1 19 -3 22 -8z m593 -23 c-3 -7 -5 -2 -5 12 0
14 2 19 5 13 2 -7 2 -19 0 -25z m93 22 c-8 -5 -24 -9 -35 -9 l-20 0 20 9 c11
5 27 9 35 9 13 1 13 0 0 -9z m-1046 -16 c5 -14 4 -15 -9 -4 -17 14 -19 20 -6
20 5 0 12 -7 15 -16z m131 6 c3 -6 -4 -10 -17 -10 -18 0 -20 2 -8 10 19 12 18
12 25 0z m396 -10 l24 -19 -33 12 c-25 9 -37 9 -52 -1 -22 -13 -27 -3 -8 16
17 17 43 15 69 -8z m339 16 c0 -11 -19 -15 -25 -6 -3 5 1 10 9 10 9 0 16 -2
16 -4z m-1030 -36 c6 -11 9 -20 7 -20 -2 0 -12 9 -22 20 -10 11 -13 20 -7 20
6 0 16 -9 22 -20z m909 -23 c1 -5 -3 -5 -9 -2 -5 3 -10 16 -9 28 0 21 1 21 9
2 5 -11 9 -24 9 -28z m183 11 c-9 -9 -12 -7 -12 12 0 19 3 21 12 12 9 -9 9
-15 0 -24z m-849 15 c3 -5 -6 -9 -19 -9 -13 -1 -21 2 -18 7 6 11 31 12 37 2z
m137 -4 c0 -6 -5 -19 -11 -30 -8 -16 -13 -18 -24 -9 -11 9 -12 17 -4 31 10 20
39 26 39 8z m570 2 c0 -6 -4 -13 -10 -16 -5 -3 -10 1 -10 9 0 9 5 16 10 16 6
0 10 -4 10 -9z m220 2 c-48 -8 -57 -16 -25 -23 29 -7 29 -8 -9 -9 -38 -1 -39
-1 -21 19 11 13 29 19 49 19 27 -2 28 -2 6 -6z m-1110 -23 c6 -11 8 -20 6 -20
-3 0 -10 9 -16 20 -6 11 -8 20 -6 20 3 0 10 -9 16 -20z m253 5 c-3 -9 -8 -14
-10 -11 -3 3 -2 9 2 15 9 16 15 13 8 -4z m687 7 c0 -4 -9 -13 -20 -20 -22 -13
-27 -3 -8 16 14 14 28 16 28 4z m-830 -11 c0 -5 -9 -11 -20 -14 -20 -5 -26 3
-13 16 9 10 33 8 33 -2z m331 -51 c65 -16 172 -8 224 16 59 27 62 27 36 5 -38
-34 -125 -54 -200 -47 -68 6 -152 41 -160 65 -2 10 5 8 23 -6 14 -12 49 -27
77 -33z m401 13 l38 -25 -23 -29 c-17 -21 -31 -28 -59 -28 -27 -1 -40 -7 -48
-22 -7 -11 -42 -35 -80 -53 -64 -31 -73 -33 -115 -23 -47 11 -58 22 -27 30 9
2 2 3 -16 1 -23 -2 -32 1 -29 9 5 15 70 21 94 9 13 -7 30 -4 63 14 51 26 47
32 -7 9 -43 -18 -43 -18 -43 -1 0 8 13 19 29 24 16 6 48 24 71 41 24 17 52 32
64 32 17 1 18 2 4 6 -18 4 -24 24 -12 36 11 11 57 -4 96 -30z m-792 23 c0 -2
-8 -10 -17 -17 -16 -13 -17 -12 -4 4 13 16 21 21 21 13z m944 -37 c4 -23 4
-44 1 -47 -3 -3 -5 4 -5 16 0 11 -4 24 -10 27 -12 8 -13 45 -1 45 5 0 11 -19
15 -41z m-794 11 c6 -11 9 -20 8 -20 -2 0 -11 9 -21 20 -9 11 -13 20 -7 20 5
0 14 -9 20 -20z m824 5 c-4 -8 -8 -15 -10 -15 -2 0 -4 7 -4 15 0 8 4 15 10 15
5 0 7 -7 4 -15z m-684 -21 c0 -19 -28 -30 -43 -15 -8 8 -6 15 8 25 22 16 35
12 35 -10z m730 16 c0 -5 -10 -15 -22 -21 -23 -12 -23 -12 -4 10 21 23 26 26
26 11z m-1075 -10 c-3 -5 -10 -10 -16 -10 -5 0 -9 5 -9 10 0 6 7 10 16 10 8 0
12 -4 9 -10z m960 -16 c9 -14 14 -28 11 -32 -3 -3 -6 -1 -6 5 0 6 -15 20 -32
32 -28 18 -30 21 -12 21 12 0 29 -11 39 -26z m-825 -4 c6 -11 9 -20 7 -20 -2
0 -12 9 -22 20 -10 11 -13 20 -7 20 6 0 16 -9 22 -20z m117 -7 c-15 -16 -17
-16 -17 -1 0 9 6 18 13 21 20 7 22 -2 4 -20z m153 -12 c3 -2 -4 -1 -15 2 -17
6 -16 3 5 -15 19 -16 20 -20 6 -14 -16 5 -17 4 -6 -9 7 -8 9 -15 5 -15 -4 0
-1 -8 6 -17 12 -14 12 -16 -1 -9 -8 4 -6 0 4 -8 15 -12 16 -16 5 -16 -9 0 -10
-3 -3 -8 6 -4 10 -15 8 -24 -1 -10 1 -18 5 -18 4 0 8 -7 8 -15 0 -13 -3 -13
-21 -1 -15 10 -24 32 -33 87 -17 108 -17 114 5 98 9 -7 19 -15 22 -18z m-350
-19 c0 -8 -1 -13 -3 -11 -1 2 -9 12 -16 22 -12 15 -12 17 3 11 9 -3 16 -13 16
-22z m150 19 c0 -5 -9 -11 -20 -14 -22 -6 -28 8 -7 16 19 8 27 8 27 -2z m862
-8 c-12 -10 -30 -29 -41 -43 -17 -21 -20 -22 -21 -7 0 22 43 67 66 67 14 0 13
-3 -4 -17z m-146 -11 c12 -9 30 -30 40 -47 17 -27 15 -26 -17 8 -20 20 -41 37
-48 37 -6 0 -11 5 -11 10 0 15 12 12 36 -8z m-561 -68 c6 -39 16 -79 24 -88
23 -27 117 -49 184 -42 89 9 143 37 152 76 4 18 19 43 34 56 38 34 50 29 16
-6 -16 -16 -26 -33 -22 -36 15 -15 -25 -63 -70 -85 -39 -19 -65 -24 -133 -24
-89 0 -138 13 -177 48 -19 17 -26 18 -52 7 -17 -6 -36 -10 -43 -7 -7 3 6 13
30 23 23 9 42 21 42 26 0 11 -10 10 -64 -8 -66 -23 -69 -10 -4 14 50 18 53 22
56 57 2 26 -2 41 -15 51 -17 14 -16 14 7 12 23 -3 26 -9 35 -74z m-229 57 c-3
-5 -14 -11 -25 -14 -14 -3 -18 -1 -14 9 3 8 14 14 25 14 10 0 17 -4 14 -9z
m754 -12 c0 -5 4 -8 9 -5 4 3 17 -4 27 -15 17 -19 17 -20 -1 -13 -14 6 -16 4
-10 -7 5 -8 -5 -3 -22 11 -17 14 -28 28 -26 33 6 11 23 9 23 -4z m-725 -9 c3
-5 2 -10 -4 -10 -5 0 -13 5 -16 10 -3 6 -2 10 4 10 5 0 13 -4 16 -10z m63 -30
c-2 -7 -10 1 -17 16 -12 27 -11 28 4 12 10 -9 16 -21 13 -28z m-78 -39 c0 -21
-16 -2 -24 29 -7 24 -6 24 8 6 9 -11 16 -27 16 -35z m168 43 c-4 -3 -34 -19
-67 -34 -39 -19 -61 -25 -61 -17 0 15 76 53 109 55 13 1 22 -1 19 -4z m563
-31 l24 -28 -26 23 c-24 21 -66 31 -55 13 3 -5 -1 -11 -9 -15 -9 -3 -15 0 -15
8 0 36 49 35 81 -1z m-1 -56 c0 -12 0 -11 -24 28 l-17 30 20 -24 c12 -13 21
-28 21 -34z m-183 11 c-3 -8 -6 -5 -6 6 -1 11 2 17 5 13 3 -3 4 -12 1 -19z
m118 -28 c3 -6 -5 -10 -19 -10 -14 0 -28 5 -31 10 -3 6 5 10 19 10 14 0 28 -4
31 -10z m-462 -37 c-7 -2 -19 -2 -25 0 -7 3 -2 5 12 5 14 0 19 -2 13 -5z m420
0 c-7 -2 -21 -2 -30 0 -10 3 -4 5 12 5 17 0 24 -2 18 -5z"/>
<path d="M1535 1290 c-4 -7 -56 -11 -138 -10 -160 1 -155 1 -141 -8 6 -4 17
-20 25 -37 8 -16 23 -34 35 -39 11 -5 25 -19 30 -30 13 -31 75 -30 89 2 5 12
14 22 20 22 12 0 105 91 105 103 0 11 -18 8 -25 -3z m-225 -52 c0 -19 -2 -20
-10 -8 -13 19 -13 30 0 30 6 0 10 -10 10 -22z m108 -60 c-3 -7 -15 -13 -28
-13 -13 0 -25 6 -27 13 -3 8 6 12 27 12 21 0 30 -4 28 -12z"/>
<path d="M335 1270 c-3 -5 1 -10 10 -10 9 0 13 5 10 10 -3 6 -8 10 -10 10 -2
0 -7 -4 -10 -10z"/>
<path d="M637 1159 c28 -48 92 -118 124 -134 15 -8 46 -15 68 -15 36 0 41 3
47 27 19 73 -85 153 -198 153 l-59 0 18 -31z m133 -5 c22 -9 49 -29 61 -45 16
-22 17 -27 5 -23 -9 3 -16 13 -16 20 0 15 -46 38 -60 29 -5 -3 -10 -1 -12 4
-1 5 -18 12 -36 14 -45 7 -53 17 -14 17 17 0 50 -7 72 -16z m-25 -92 c-3 -3
-16 5 -28 17 l-22 23 28 -17 c15 -10 25 -20 22 -23z"/>
<path d="M1128 1176 c-59 -21 -88 -45 -105 -83 -21 -52 -6 -83 42 -83 70 0
119 34 179 125 14 22 26 43 26 47 0 13 -102 8 -142 -6z m72 -17 c-19 -6 -42
-13 -50 -16 -8 -3 -21 -5 -28 -4 -7 1 -16 -8 -22 -21 -5 -13 -9 -17 -9 -9 -1
10 -9 7 -27 -10 -26 -23 -26 -23 -15 -2 19 37 93 72 151 71 l35 0 -35 -9z
m-53 -95 c-3 -3 -12 -4 -19 -1 -8 3 -5 6 6 6 11 1 17 -2 13 -5z"/>
<path d="M1470 1015 c0 -8 7 -15 15 -15 8 0 15 7 15 15 0 8 -7 15 -15 15 -8 0
-15 -7 -15 -15z"/>
<path d="M1393 890 c-1 -11 2 -20 5 -20 4 0 8 9 9 20 1 11 -2 20 -5 20 -4 0
-8 -9 -9 -20z"/>
<path d="M1510 852 c0 -35 3 -40 26 -45 24 -4 25 -3 22 37 -2 34 -7 42 -25 44
-21 3 -23 -1 -23 -36z"/>
<path d="M1420 870 c0 -5 5 -10 10 -10 6 0 10 5 10 10 0 6 -4 10 -10 10 -5 0
-10 -4 -10 -10z"/>
<path d="M1365 835 c23 -8 125 -11 113 -4 -7 5 -38 8 -68 8 -30 0 -50 -2 -45
-4z"/>
</g>
</svg>
